<mxfile host="65bd71144e">
    <diagram id="lK7ZifQAlv5tcjJvCvCm" name="Page-1">
        <mxGraphModel dx="758" dy="664" grid="1" gridSize="10" guides="1" tooltips="1" connect="1" arrows="1" fold="1" page="1" pageScale="1" pageWidth="827" pageHeight="1169" math="0" shadow="0">
            <root>
                <mxCell id="0"/>
                <mxCell id="1" parent="0"/>
                <mxCell id="2" style="html=1;exitX=1;exitY=0.5;exitDx=0;exitDy=0;endArrow=none;endFill=0;rounded=0;entryX=1;entryY=0.88;entryDx=0;entryDy=0;" parent="1" source="4" target="13" edge="1">
                    <mxGeometry relative="1" as="geometry">
                        <mxPoint x="160" y="210" as="targetPoint"/>
                        <Array as="points">
                            <mxPoint x="120" y="190"/>
                        </Array>
                    </mxGeometry>
                </mxCell>
                <mxCell id="45" style="edgeStyle=orthogonalEdgeStyle;rounded=0;html=1;entryX=0;entryY=0.5;entryDx=0;entryDy=0;entryPerimeter=0;endArrow=none;endFill=0;startArrow=none;" parent="1" source="28" target="36" edge="1">
                    <mxGeometry relative="1" as="geometry">
                        <Array as="points">
                            <mxPoint x="120" y="560"/>
                        </Array>
                    </mxGeometry>
                </mxCell>
                <mxCell id="49" style="edgeStyle=orthogonalEdgeStyle;rounded=0;html=1;endArrow=none;endFill=0;" parent="1" source="4" edge="1">
                    <mxGeometry relative="1" as="geometry">
                        <mxPoint x="120" y="560" as="targetPoint"/>
                    </mxGeometry>
                </mxCell>
                <mxCell id="4" value="" style="pointerEvents=1;verticalLabelPosition=bottom;shadow=0;dashed=0;align=center;html=1;verticalAlign=top;shape=mxgraph.electrical.miscellaneous.batteryStack;rotation=-90;" parent="1" vertex="1">
                    <mxGeometry x="70" y="260" width="100" height="60" as="geometry"/>
                </mxCell>
                <mxCell id="5" value="+" style="text;html=1;align=center;verticalAlign=middle;resizable=0;points=[];autosize=1;strokeColor=none;fillColor=none;" parent="1" vertex="1">
                    <mxGeometry x="70" y="234" width="30" height="30" as="geometry"/>
                </mxCell>
                <mxCell id="6" value="-" style="text;html=1;align=center;verticalAlign=middle;resizable=0;points=[];autosize=1;strokeColor=none;fillColor=none;" parent="1" vertex="1">
                    <mxGeometry x="71" y="320" width="30" height="30" as="geometry"/>
                </mxCell>
                <mxCell id="8" value="" style="verticalLabelPosition=bottom;shadow=0;dashed=0;align=center;html=1;verticalAlign=top;shape=mxgraph.electrical.opto_electronics.led_2;pointerEvents=1;fontFamily=Helvetica;fontSize=11;fontColor=default;rotation=-180;" parent="1" vertex="1">
                    <mxGeometry x="296" y="530.5" width="100" height="70" as="geometry"/>
                </mxCell>
                <mxCell id="9" value="Output" style="text;html=1;align=center;verticalAlign=middle;resizable=0;points=[];autosize=1;strokeColor=none;fillColor=none;fontSize=11;fontFamily=Helvetica;fontColor=default;" parent="1" vertex="1">
                    <mxGeometry x="326" y="490" width="60" height="30" as="geometry"/>
                </mxCell>
                <mxCell id="10" value="&lt;font style=&quot;font-size: 13px;&quot;&gt;Evan Beaudoin&lt;br style=&quot;&quot;&gt;TEJ3M&lt;br&gt;Unit #4-17&lt;/font&gt;" style="text;html=1;align=left;verticalAlign=middle;resizable=0;points=[];autosize=1;strokeColor=none;fillColor=none;fontSize=17;fontFamily=Helvetica;fontColor=default;" parent="1" vertex="1">
                    <mxGeometry x="480" y="131.5" width="110" height="70" as="geometry"/>
                </mxCell>
                <mxCell id="11" style="edgeStyle=none;rounded=0;html=1;exitX=1;exitY=0.12;exitDx=0;exitDy=0;endArrow=none;endFill=0;entryX=0.5;entryY=0;entryDx=0;entryDy=0;" parent="1" source="13" target="26" edge="1">
                    <mxGeometry relative="1" as="geometry">
                        <mxPoint x="200" y="390" as="targetPoint"/>
                    </mxGeometry>
                </mxCell>
                <mxCell id="75" style="edgeStyle=orthogonalEdgeStyle;rounded=0;html=1;entryX=0;entryY=0.75;entryDx=0;entryDy=0;entryPerimeter=0;endArrow=none;endFill=0;startArrow=none;" edge="1" parent="1" source="82" target="74">
                    <mxGeometry relative="1" as="geometry"/>
                </mxCell>
                <mxCell id="13" value="" style="shape=mxgraph.electrical.electro-mechanical.twoWaySwitch;aspect=fixed;elSwitchState=2;rotation=-180;" parent="1" vertex="1">
                    <mxGeometry x="192.5" y="187" width="75" height="26" as="geometry"/>
                </mxCell>
                <mxCell id="14" value="&lt;div style=&quot;text-align: left;&quot;&gt;&lt;span style=&quot;background-color: initial;&quot;&gt;&lt;span style=&quot;white-space: pre;&quot;&gt;&#9;&lt;/span&gt;&lt;span style=&quot;white-space: pre;&quot;&gt;&#9;&lt;/span&gt;&amp;nbsp; &amp;nbsp; &amp;nbsp; Half Adder&lt;br&gt;&lt;/span&gt;&lt;/div&gt;&lt;div style=&quot;text-align: left;&quot;&gt;&lt;span style=&quot;background-color: initial;&quot;&gt;Input&amp;nbsp; A&amp;nbsp; | Input B |&amp;nbsp; Output | Carry Out&lt;/span&gt;&lt;br&gt;&lt;/div&gt;&lt;div style=&quot;text-align: left;&quot;&gt;&lt;span style=&quot;background-color: initial;&quot;&gt;--------------------------------------------------&lt;/span&gt;&lt;/div&gt;&lt;div style=&quot;text-align: left;&quot;&gt;&lt;span style=&quot;background-color: initial;&quot;&gt;0&amp;nbsp; &amp;nbsp; &amp;nbsp; &amp;nbsp; &amp;nbsp; &amp;nbsp; &amp;nbsp;|&amp;nbsp; &amp;nbsp; 0&amp;nbsp; &amp;nbsp; &amp;nbsp; &amp;nbsp; |&amp;nbsp; &amp;nbsp; 0&amp;nbsp; &amp;nbsp; &amp;nbsp; &amp;nbsp; &amp;nbsp;|&amp;nbsp; &amp;nbsp; &amp;nbsp; &amp;nbsp; &amp;nbsp;0&lt;/span&gt;&lt;/div&gt;&lt;div style=&quot;text-align: left;&quot;&gt;&lt;span style=&quot;background-color: initial;&quot;&gt;0&amp;nbsp; &amp;nbsp; &amp;nbsp; &amp;nbsp; &amp;nbsp; &amp;nbsp; &amp;nbsp;|&amp;nbsp; &amp;nbsp; 1&amp;nbsp; &amp;nbsp; &amp;nbsp; &amp;nbsp; |&amp;nbsp; &amp;nbsp; 1&amp;nbsp; &amp;nbsp; &amp;nbsp; &amp;nbsp; &amp;nbsp;|&amp;nbsp; &amp;nbsp; &amp;nbsp; &amp;nbsp; &amp;nbsp;0&lt;/span&gt;&lt;/div&gt;&lt;div style=&quot;text-align: left;&quot;&gt;&lt;span style=&quot;background-color: initial;&quot;&gt;1&amp;nbsp; &amp;nbsp; &amp;nbsp; &amp;nbsp; &amp;nbsp; &amp;nbsp; &amp;nbsp;|&amp;nbsp; &amp;nbsp; 0&amp;nbsp; &amp;nbsp; &amp;nbsp; &amp;nbsp; |&amp;nbsp; &amp;nbsp; 1&amp;nbsp; &amp;nbsp; &amp;nbsp; &amp;nbsp; &amp;nbsp;|&amp;nbsp; &amp;nbsp; &amp;nbsp; &amp;nbsp; &amp;nbsp;0&lt;/span&gt;&lt;/div&gt;&lt;div style=&quot;text-align: left;&quot;&gt;&lt;span style=&quot;background-color: initial;&quot;&gt;1&amp;nbsp; &amp;nbsp; &amp;nbsp; &amp;nbsp; &amp;nbsp; &amp;nbsp; &amp;nbsp;|&amp;nbsp; &amp;nbsp; 1&amp;nbsp; &amp;nbsp; &amp;nbsp; &amp;nbsp; |&amp;nbsp; &amp;nbsp; 0&amp;nbsp; &amp;nbsp; &amp;nbsp; &amp;nbsp; &amp;nbsp;|&amp;nbsp; &amp;nbsp; &amp;nbsp; &amp;nbsp; &amp;nbsp;1&lt;/span&gt;&lt;/div&gt;" style="text;html=1;align=center;verticalAlign=middle;resizable=0;points=[];autosize=1;strokeColor=default;fillColor=none;" parent="1" vertex="1">
                    <mxGeometry x="470" y="234" width="220" height="110" as="geometry"/>
                </mxCell>
                <mxCell id="15" value="220 Î©" style="text;html=1;align=center;verticalAlign=middle;resizable=0;points=[];autosize=1;strokeColor=none;fillColor=none;" parent="1" vertex="1">
                    <mxGeometry x="226" y="510" width="60" height="30" as="geometry"/>
                </mxCell>
                <mxCell id="16" value="Half Adder" style="text;html=1;align=center;verticalAlign=middle;resizable=0;points=[];autosize=1;strokeColor=none;fillColor=none;fontSize=19;" parent="1" vertex="1">
                    <mxGeometry x="257.5" y="50" width="110" height="40" as="geometry"/>
                </mxCell>
                <mxCell id="17" value="Input A" style="text;html=1;align=center;verticalAlign=middle;resizable=0;points=[];autosize=1;strokeColor=none;fillColor=none;fontSize=11;fontFamily=Helvetica;fontColor=default;" parent="1" vertex="1">
                    <mxGeometry x="179.5" y="157" width="60" height="30" as="geometry"/>
                </mxCell>
                <mxCell id="18" value="5 V" style="text;html=1;align=center;verticalAlign=middle;resizable=0;points=[];autosize=1;strokeColor=none;fillColor=none;fontSize=13;" parent="1" vertex="1">
                    <mxGeometry x="50" y="276" width="40" height="30" as="geometry"/>
                </mxCell>
                <mxCell id="19" style="edgeStyle=orthogonalEdgeStyle;html=1;entryX=1;entryY=0.88;entryDx=0;entryDy=0;rounded=0;endArrow=none;endFill=0;" parent="1" source="20" target="24" edge="1">
                    <mxGeometry relative="1" as="geometry">
                        <Array as="points">
                            <mxPoint x="121" y="113"/>
                        </Array>
                    </mxGeometry>
                </mxCell>
                <mxCell id="20" value="" style="ellipse;whiteSpace=wrap;html=1;aspect=fixed;fontFamily=Helvetica;fontSize=11;fillColor=#000000;fontColor=#ffffff;strokeColor=none;fillStyle=solid;shadow=1;" parent="1" vertex="1">
                    <mxGeometry x="112" y="182" width="17" height="17" as="geometry"/>
                </mxCell>
                <mxCell id="22" style="edgeStyle=orthogonalEdgeStyle;rounded=0;html=1;exitX=1;exitY=0.12;exitDx=0;exitDy=0;endArrow=none;endFill=0;entryX=0.5;entryY=0;entryDx=0;entryDy=0;" parent="1" source="24" target="28" edge="1">
                    <mxGeometry relative="1" as="geometry">
                        <mxPoint x="160" y="400" as="targetPoint"/>
                        <Array as="points">
                            <mxPoint x="160" y="133"/>
                            <mxPoint x="160" y="553"/>
                        </Array>
                    </mxGeometry>
                </mxCell>
                <mxCell id="77" style="edgeStyle=orthogonalEdgeStyle;rounded=0;html=1;endArrow=none;endFill=0;" edge="1" parent="1" source="24">
                    <mxGeometry relative="1" as="geometry">
                        <mxPoint x="440" y="380" as="targetPoint"/>
                        <Array as="points">
                            <mxPoint x="440" y="123"/>
                            <mxPoint x="440" y="380"/>
                        </Array>
                    </mxGeometry>
                </mxCell>
                <mxCell id="24" value="" style="shape=mxgraph.electrical.electro-mechanical.twoWaySwitch;aspect=fixed;elSwitchState=2;rotation=-180;" parent="1" vertex="1">
                    <mxGeometry x="172.5" y="110" width="75" height="26" as="geometry"/>
                </mxCell>
                <mxCell id="25" value="Input B" style="text;html=1;align=center;verticalAlign=middle;resizable=0;points=[];autosize=1;strokeColor=none;fillColor=none;fontSize=11;fontFamily=Helvetica;fontColor=default;" parent="1" vertex="1">
                    <mxGeometry x="180" y="80" width="60" height="30" as="geometry"/>
                </mxCell>
                <mxCell id="26" value="" style="ellipse;whiteSpace=wrap;html=1;aspect=fixed;fontFamily=Helvetica;fontSize=11;fillColor=#000000;fontColor=#ffffff;strokeColor=none;fillStyle=solid;shadow=1;" parent="1" vertex="1">
                    <mxGeometry x="180" y="550" width="17" height="17" as="geometry"/>
                </mxCell>
                <mxCell id="36" value="" style="pointerEvents=1;verticalLabelPosition=bottom;shadow=0;dashed=0;align=center;html=1;verticalAlign=top;shape=mxgraph.electrical.resistors.resistor_2;" parent="1" vertex="1">
                    <mxGeometry x="205" y="550" width="100" height="20" as="geometry"/>
                </mxCell>
                <mxCell id="28" value="" style="ellipse;whiteSpace=wrap;html=1;aspect=fixed;fontFamily=Helvetica;fontSize=11;fillColor=#000000;fontColor=#ffffff;strokeColor=none;fillStyle=solid;shadow=1;" parent="1" vertex="1">
                    <mxGeometry x="153" y="553" width="17" height="17" as="geometry"/>
                </mxCell>
                <mxCell id="79" style="edgeStyle=orthogonalEdgeStyle;rounded=0;html=1;entryX=0;entryY=0.57;entryDx=0;entryDy=0;entryPerimeter=0;endArrow=none;endFill=0;" edge="1" parent="1" source="50" target="68">
                    <mxGeometry relative="1" as="geometry"/>
                </mxCell>
                <mxCell id="50" value="" style="verticalLabelPosition=bottom;shadow=0;dashed=0;align=center;html=1;verticalAlign=top;shape=mxgraph.electrical.logic_gates.logic_gate;operation=and;rotation=90;" parent="1" vertex="1">
                    <mxGeometry x="375" y="400" width="100" height="60" as="geometry"/>
                </mxCell>
                <mxCell id="68" value="" style="verticalLabelPosition=bottom;shadow=0;dashed=0;align=center;html=1;verticalAlign=top;shape=mxgraph.electrical.opto_electronics.led_2;pointerEvents=1;fontFamily=Helvetica;fontSize=11;fontColor=default;rotation=-180;" vertex="1" parent="1">
                    <mxGeometry x="305" y="620" width="100" height="70" as="geometry"/>
                </mxCell>
                <mxCell id="71" style="edgeStyle=orthogonalEdgeStyle;rounded=0;html=1;endArrow=none;endFill=0;" edge="1" parent="1" source="69">
                    <mxGeometry relative="1" as="geometry">
                        <mxPoint x="120" y="540" as="targetPoint"/>
                    </mxGeometry>
                </mxCell>
                <mxCell id="69" value="" style="pointerEvents=1;verticalLabelPosition=bottom;shadow=0;dashed=0;align=center;html=1;verticalAlign=top;shape=mxgraph.electrical.resistors.resistor_2;" vertex="1" parent="1">
                    <mxGeometry x="205" y="639.5" width="100" height="20" as="geometry"/>
                </mxCell>
                <mxCell id="72" value="Carry Out" style="text;html=1;align=center;verticalAlign=middle;resizable=0;points=[];autosize=1;strokeColor=none;fillColor=none;fontSize=11;fontFamily=Helvetica;fontColor=default;" vertex="1" parent="1">
                    <mxGeometry x="326" y="690" width="70" height="30" as="geometry"/>
                </mxCell>
                <mxCell id="73" value="220 Î©" style="text;html=1;align=center;verticalAlign=middle;resizable=0;points=[];autosize=1;strokeColor=none;fillColor=none;" vertex="1" parent="1">
                    <mxGeometry x="226" y="670" width="60" height="30" as="geometry"/>
                </mxCell>
                <mxCell id="80" style="edgeStyle=orthogonalEdgeStyle;rounded=0;html=1;entryX=0;entryY=0.57;entryDx=0;entryDy=0;entryPerimeter=0;endArrow=none;endFill=0;" edge="1" parent="1" source="74" target="8">
                    <mxGeometry relative="1" as="geometry">
                        <Array as="points">
                            <mxPoint x="318" y="470"/>
                            <mxPoint x="396" y="470"/>
                        </Array>
                    </mxGeometry>
                </mxCell>
                <mxCell id="74" value="" style="verticalLabelPosition=bottom;shadow=0;dashed=0;align=center;html=1;verticalAlign=top;shape=mxgraph.electrical.logic_gates.logic_gate;operation=xor;rotation=90;" vertex="1" parent="1">
                    <mxGeometry x="267.5" y="276" width="100" height="60" as="geometry"/>
                </mxCell>
                <mxCell id="81" style="edgeStyle=orthogonalEdgeStyle;rounded=0;html=1;entryX=0;entryY=0.25;entryDx=0;entryDy=0;entryPerimeter=0;endArrow=none;endFill=0;" edge="1" parent="1" source="78" target="74">
                    <mxGeometry relative="1" as="geometry">
                        <Array as="points">
                            <mxPoint x="378" y="160"/>
                            <mxPoint x="333" y="160"/>
                        </Array>
                    </mxGeometry>
                </mxCell>
                <mxCell id="78" value="" style="ellipse;whiteSpace=wrap;html=1;aspect=fixed;fontFamily=Helvetica;fontSize=11;fillColor=#000000;fontColor=#ffffff;strokeColor=none;fillStyle=solid;shadow=1;" vertex="1" parent="1">
                    <mxGeometry x="369" y="114.5" width="17" height="17" as="geometry"/>
                </mxCell>
                <mxCell id="85" style="edgeStyle=orthogonalEdgeStyle;rounded=0;html=1;entryX=0;entryY=0.75;entryDx=0;entryDy=0;entryPerimeter=0;endArrow=none;endFill=0;" edge="1" parent="1" source="82" target="50">
                    <mxGeometry relative="1" as="geometry">
                        <Array as="points">
                            <mxPoint x="278" y="180"/>
                            <mxPoint x="410" y="180"/>
                        </Array>
                    </mxGeometry>
                </mxCell>
                <mxCell id="82" value="" style="ellipse;whiteSpace=wrap;html=1;aspect=fixed;fontFamily=Helvetica;fontSize=11;fillColor=#000000;fontColor=#ffffff;strokeColor=none;fillStyle=solid;shadow=1;" vertex="1" parent="1">
                    <mxGeometry x="269" y="191.5" width="17" height="17" as="geometry"/>
                </mxCell>
            </root>
        </mxGraphModel>
    </diagram>
</mxfile>